<svg xmlns="http://www.w3.org/2000/svg" viewBox="0 0 50.55 44.54"><defs><style>.cls-1{fill:#262626;stroke:#262626;stroke-miterlimit:10;stroke-width:0.5px;}</style></defs><g id="Laag_2" data-name="Laag 2"><g id="background"><path class="cls-1" d="M19.06,20.16a1.09,1.09,0,0,1-.77-.32L.57,2.11A1.09,1.09,0,0,1,.33.92a1.11,1.11,0,0,1,1-.67H49.21a1.07,1.07,0,0,1,1,.8,1.08,1.08,0,0,1-.5,1.23L19.61,20A1.08,1.08,0,0,1,19.06,20.16ZM4,2.43,19.24,17.7l26-15.27Z"/><path class="cls-1" d="M24.23,44.29l-.18,0a1.1,1.1,0,0,1-.89-.84L18,19.29a1.08,1.08,0,0,1,.51-1.16L48.66.4A1.11,1.11,0,0,1,50,.57a1.09,1.09,0,0,1,.16,1.33l-25,41.86A1.1,1.1,0,0,1,24.23,44.29ZM20.29,19.61l4.43,20.65L46.09,4.44Z"/></g></g></svg>