<svg xmlns="http://www.w3.org/2000/svg" viewBox="0 0 49.37 49.38"><defs><style>.cls-1,.cls-2{fill:#262626;}.cls-1{stroke:#262626;stroke-miterlimit:10;}</style></defs><g id="Laag_2" data-name="Laag 2"><g id="background"><path class="cls-1" d="M24.68,48.88A24.19,24.19,0,0,1,7.57,7.59,24.19,24.19,0,1,1,41.78,41.8h0A24,24,0,0,1,24.68,48.88Zm0-46.34A22.15,22.15,0,0,0,9,40.35a22.14,22.14,0,0,0,31.32,0h0A22.15,22.15,0,0,0,24.68,2.54Z"/><polygon class="cls-2" points="12.4 36.91 28.87 28.53 20.77 20.44 12.4 36.91"/><polygon class="cls-2" points="20.75 20.41 23.28 22.94 30.95 18.21 26.22 25.88 28.89 28.55 37.25 12.06 20.75 20.41"/></g></g></svg>