<svg xmlns="http://www.w3.org/2000/svg" viewBox="0 0 47.07 48.23"><defs><style>.cls-1{stroke:#000;stroke-miterlimit:10;stroke-width:0.25px;}</style></defs><g id="Laag_2" data-name="Laag 2"><g id="background"><path class="cls-1" d="M23.53,33.15a10,10,0,1,1,10-10A10,10,0,0,1,23.53,33.15Zm0-18.29a8.28,8.28,0,1,0,8.28,8.28A8.28,8.28,0,0,0,23.53,14.86Z"/><path class="cls-1" d="M38.85,47.23H37.11v-3a7,7,0,0,0-6.94-6.94H16.89A7,7,0,0,0,10,44.27v3H8.22v-3a8.69,8.69,0,0,1,8.67-8.68H30.17a8.69,8.69,0,0,1,8.68,8.68Z"/><path class="cls-1" d="M38.87,48.1H8.19A8.07,8.07,0,0,1,.13,40V14.67A8.07,8.07,0,0,1,8.19,6.6h9.27L23.88.18,30.31,6.6h8.56a8.08,8.08,0,0,1,8.07,8.07V40A8.08,8.08,0,0,1,38.87,48.1ZM8.19,8.34a6.34,6.34,0,0,0-6.33,6.33V40a6.34,6.34,0,0,0,6.33,6.33H38.87A6.34,6.34,0,0,0,45.2,40V14.67a6.34,6.34,0,0,0-6.33-6.33H29.59l-5.71-5.7-5.7,5.7Z"/></g></g></svg>