<svg xmlns="http://www.w3.org/2000/svg" viewBox="0 0 47.93 47.93"><defs><style>.cls-1{fill:#262626;}</style></defs><g id="Laag_2" data-name="Laag 2"><g id="background"><path class="cls-1" d="M24,44.64A20.68,20.68,0,1,1,44.64,24,20.7,20.7,0,0,1,24,44.64ZM24,5.08A18.88,18.88,0,1,0,42.84,24,18.9,18.9,0,0,0,24,5.08Z"/><path class="cls-1" d="M24,4.19a19.61,19.61,0,0,1,5.82.87,5.88,5.88,0,0,0-11.64,0A19.66,19.66,0,0,1,24,4.19Z"/><path class="cls-1" d="M24,4.19a19.61,19.61,0,0,1,5.82.87,5.88,5.88,0,0,0-11.64,0A19.66,19.66,0,0,1,24,4.19Z"/><path class="cls-1" d="M24,43.74a20,20,0,0,1-5.82-.87,5.88,5.88,0,0,0,11.64,0A19.94,19.94,0,0,1,24,43.74Z"/><path class="cls-1" d="M43.74,24a19.94,19.94,0,0,1-.87,5.82,5.88,5.88,0,0,0,0-11.64A20,20,0,0,1,43.74,24Z"/><path class="cls-1" d="M4.18,24a19.67,19.67,0,0,1,.88-5.82,5.88,5.88,0,0,0,0,11.64A19.62,19.62,0,0,1,4.18,24Z"/><path class="cls-1" d="M38,38a20.05,20.05,0,0,1-4.73,3.5,5.88,5.88,0,0,0,8.23-8.23A20.05,20.05,0,0,1,38,38Z"/><path class="cls-1" d="M10,10a19.78,19.78,0,0,1,4.73-3.5,5.88,5.88,0,0,0-8.23,8.23A19.78,19.78,0,0,1,10,10Z"/><path class="cls-1" d="M10,38a19.78,19.78,0,0,1-3.5-4.73,5.88,5.88,0,0,0,8.23,8.23A20.05,20.05,0,0,1,10,38Z"/><path class="cls-1" d="M38,10a20.05,20.05,0,0,1,3.5,4.73,5.88,5.88,0,0,0-8.23-8.23A19.78,19.78,0,0,1,38,10Z"/></g></g></svg>