<svg xmlns="http://www.w3.org/2000/svg" viewBox="0 0 43.39 49.8"><defs><style>.cls-1{stroke:#000;stroke-miterlimit:10;stroke-width:0.25px;}</style></defs><g id="Laag_2" data-name="Laag 2"><g id="background"><path class="cls-1" d="M32,49.68H11.39A11.27,11.27,0,0,1,.13,38.42V17.8A11.27,11.27,0,0,1,11.39,6.54H32A11.28,11.28,0,0,1,43.27,17.8V38.42A11.28,11.28,0,0,1,32,49.68ZM11.39,8.07A9.74,9.74,0,0,0,1.66,17.8V38.42a9.74,9.74,0,0,0,9.73,9.73H32a9.74,9.74,0,0,0,9.72-9.73V17.8A9.74,9.74,0,0,0,32,8.07Z"/><polygon class="cls-1" points="20.01 33.04 20.01 25.91 9.15 30.11 8.59 28.68 21.54 23.68 21.54 30.91 32.13 27.38 32.62 28.84 20.01 33.04"/><rect class="cls-1" x="16.99" y="-0.39" width="1.53" height="8.77" transform="translate(1.72 12.59) rotate(-40.88)"/><rect class="cls-1" x="20.18" y="3.23" width="8.77" height="1.53" transform="translate(5.47 19.95) rotate(-49.12)"/></g></g></svg>