<svg xmlns="http://www.w3.org/2000/svg" viewBox="0 0 62.23 62.23"><defs><style>.cls-1{opacity:0.05;}.cls-2{fill:#fff;}</style></defs><g id="Laag_2" data-name="Laag 2"><g id="background"><path class="cls-1" d="M31.12,57A25.87,25.87,0,1,1,57,31.11,25.89,25.89,0,0,1,31.12,57Z"/><path class="cls-2" d="M34.5.18A31.12,31.12,0,1,0,62.05,27.74,31.15,31.15,0,0,0,34.5.18ZM26.4,46l-2.76-2.76a.48.48,0,0,1,0-.68l11-10.91a.5.5,0,0,0,0-.69l-11-11.79a.51.51,0,0,1,0-.69L26,16.19a.49.49,0,0,1,.69,0L41.44,31a.5.5,0,0,1,0,.7L27.1,46A.5.5,0,0,1,26.4,46Z"/></g></g></svg>